<?xml version="1.0" encoding="utf-8"?>
<!-- Generator: Adobe Illustrator 17.1.0, SVG Export Plug-In . SVG Version: 6.00 Build 0)  -->
<!DOCTYPE svg PUBLIC "-//W3C//DTD SVG 1.1//EN" "http://www.w3.org/Graphics/SVG/1.1/DTD/svg11.dtd">
<svg version="1.1" id="Layer_1" xmlns="http://www.w3.org/2000/svg" xmlns:xlink="http://www.w3.org/1999/xlink" x="0px" y="0px"
	 viewBox="0 0 160 160" enable-background="new 0 0 160 160" xml:space="preserve">
<g>
	<path fill="#FFFFFF" d="M135.6,62.4V45.3H11.9v34.3v34.3h123.8V96.7h13.2V79.6V62.4H135.6z M127.9,106.1H19.6V79.6V53.1h108.2v26.5
		V106.1z M142.3,83.1V90h-6.6v-6.9v-3.5v-3.5v-6.9h6.6v6.9v3.5V83.1z"/>
	<polygon fill="#FFFFFF" points="27.3,98.3 69.6,98.3 70.5,82.2 62.4,82.1 78,60.9 27.3,60.9 	"/>
	<polygon fill="#FFFFFF" points="78,60.9 77,77.3 84.9,77.3 69.6,98.3 120,98.3 120,60.9 	"/>
	<polygon fill="#FFFFFF" points="69.6,98.4 69.6,98.3 69.6,98.3 	"/>
</g>
</svg>
