<?xml version="1.0" encoding="utf-8"?>
<!-- Generator: Adobe Illustrator 17.1.0, SVG Export Plug-In . SVG Version: 6.00 Build 0)  -->
<!DOCTYPE svg PUBLIC "-//W3C//DTD SVG 1.1//EN" "http://www.w3.org/Graphics/SVG/1.1/DTD/svg11.dtd">
<svg version="1.1" id="Layer_1" xmlns="http://www.w3.org/2000/svg" xmlns:xlink="http://www.w3.org/1999/xlink" x="0px" y="0px"
	 viewBox="0 0 160 160" enable-background="new 0 0 160 160" xml:space="preserve">
<path opacity="0.3" fill="#FFFFFF" d="M122.6,42.9c0-3.8-0.5-7.7-1.4-10.8c-0.4-1.3-1.6-2.3-3-2.3H41.4c-1.4,0-2.6,0.9-3,2.3
	C37.5,35.2,37,39,37,42.8c0,2.7,0.3,5.4,0.7,7.9h-0.2l1.1,3.7c0.2,0.6,0.3,1.2,0.5,1.8c0.1,0.3,0.2,0.6,0.3,0.9
	c0.1,0.2,0.1,0.4,0.2,0.6c4,10.9,12,19.3,22.1,23.9c4.7,2.2,9.8,3.5,15.1,3.9v37.9H55.2c-1.7,0-3.2,1.4-3.2,3.2
	c0,1.7,1.4,3.2,3.2,3.2h49c1.7,0,3.2-1.4,3.2-3.2c0-1.7-1.4-3.2-3.2-3.2h-21v-38c4.9-0.4,9.7-1.6,14-3.6
	c10.4-4.5,18.7-13.1,22.7-24.2c0-0.1,0.1-0.2,0.1-0.3c0.1-0.4,0.3-0.8,0.4-1.2s0.3-0.8,0.4-1.2c0,0,0,0,0-0.1l1.2-4h-0.2
	C122.3,48.2,122.6,45.6,122.6,42.9z M43.3,42.9c0-2.3,0.2-4.6,0.6-6.7h71.7c0.4,2.1,0.6,4.4,0.6,6.7c0,2.7-0.3,5.3-0.9,7.9H44.2
	C43.6,48.2,43.3,45.6,43.3,42.9z"/>
</svg>
