<?xml version="1.0" encoding="utf-8"?>
<!-- Generator: Adobe Illustrator 17.1.0, SVG Export Plug-In . SVG Version: 6.00 Build 0)  -->
<!DOCTYPE svg PUBLIC "-//W3C//DTD SVG 1.1//EN" "http://www.w3.org/Graphics/SVG/1.1/DTD/svg11.dtd">
<svg version="1.1" id="Layer_1" xmlns="http://www.w3.org/2000/svg" xmlns:xlink="http://www.w3.org/1999/xlink" x="0px" y="0px"
	 viewBox="0 0 160 160" enable-background="new 0 0 160 160" xml:space="preserve">
<path opacity="0.3" fill="#FFFFFF" d="M129.1,62.1c0.1-0.2,0.1-0.4,0.1-0.6c0-0.1,0-0.2,0-0.2c0-0.1,0-0.1,0-0.2
	c0-0.2,0-0.4-0.1-0.5v-0.1c-0.1-0.3-0.1-0.5-0.3-0.7c0,0,0,0,0-0.1l-13.7-27.4c0,0,0,0,0-0.1c-0.1-0.2-0.3-0.5-0.5-0.7l-0.1-0.1
	c-0.1-0.2-0.3-0.3-0.5-0.4c-0.1,0-0.1-0.1-0.2-0.1s-0.1-0.1-0.2-0.1c-0.2-0.1-0.3-0.1-0.5-0.2H113c-0.3-0.1-0.5-0.1-0.8-0.1
	c0,0,0,0-0.1,0H52.9h-0.1c-0.2,0-0.3,0-0.5,0.1c-0.1,0-0.2,0-0.3,0.1h-0.1c-0.1,0-0.2,0.1-0.4,0.2c-0.1,0-0.1,0.1-0.2,0.1
	c-0.2,0.1-0.4,0.3-0.6,0.4c0,0,0,0-0.1,0.1c-0.2,0.1-0.3,0.3-0.4,0.5c0,0,0,0-0.1,0.1L32,59.3l0,0l0,0l0,0c-0.2,0.2-0.3,0.5-0.4,0.8
	c0,0.1,0,0.1-0.1,0.2c-0.1,0.3-0.1,0.5-0.1,0.8l0,0v0.1c0,0.3,0.1,0.5,0.1,0.8c0,0.1,0,0.1,0.1,0.2c0.1,0.3,0.2,0.5,0.4,0.8l0,0
	l45.6,63.9l0,0l0,0c0.2,0.2,0.4,0.5,0.6,0.6c0.1,0.1,0.1,0.1,0.2,0.1c0.2,0.1,0.4,0.2,0.6,0.3c0.1,0,0.2,0.1,0.3,0.1
	c0.3,0.1,0.6,0.2,0.9,0.2s0.6-0.1,0.9-0.2c0.1,0,0.2-0.1,0.3-0.1c0.2-0.1,0.4-0.2,0.6-0.3c0.1,0,0.1-0.1,0.2-0.1
	c0.2-0.2,0.4-0.4,0.6-0.6l0,0l0,0L128.6,63l0,0c0.1-0.2,0.3-0.4,0.4-0.7C129,62.2,129,62.1,129.1,62.1z M52,41l5.6,16.9H40.7L52,41z
	 M68.1,57.9l12.2-18.4l12.2,18.4H68.1z M94.3,64.3l-14,49l-14-49H94.3z M86.4,36.9h20.7l-8.9,17.8L86.4,36.9z M63,53.8l-5.6-16.9
	h16.9L63,53.8z M59.6,64.3L72.1,108L40.9,64.3H59.6z M101,64.3h18.7L88.6,108L101,64.3z M103.8,57.9l8.5-17l8.5,17H103.8z"/>
</svg>
