<?xml version="1.0" encoding="utf-8"?>
<!-- Generator: Adobe Illustrator 17.1.0, SVG Export Plug-In . SVG Version: 6.00 Build 0)  -->
<!DOCTYPE svg PUBLIC "-//W3C//DTD SVG 1.1//EN" "http://www.w3.org/Graphics/SVG/1.1/DTD/svg11.dtd">
<svg version="1.1" id="Layer_1" xmlns="http://www.w3.org/2000/svg" xmlns:xlink="http://www.w3.org/1999/xlink" x="0px" y="0px"
	 viewBox="0 0 160 160" enable-background="new 0 0 160 160" xml:space="preserve">
<g>
	<path fill="#FFFFFF" d="M119.2,61.7"/>
	<g>
		<path fill="#FFFFFF" d="M77.3,81.7c0.9,0,1.6-0.7,1.6-1.6V42.7c0-0.9-0.7-1.6-1.6-1.6H10.8c-0.9,0-1.6,0.7-1.6,1.6v14.9
			c0,0.9,0.7,1.7,1.6,1.7c0,0,2.1,0.1,4.5,1.4c5.2,2.7,5.1,9.1,5.1,9.1c0,0.9,0,2.4,0,3.2v7.2c0,0.9,0.7,1.6,1.6,1.6L77.3,81.7z"/>
	</g>
	<path fill="#FFFFFF" d="M17.1,47.6"/>
	<path fill="#FFFFFF" d="M17.9,117.8V71.9c0,0,0.5-6.8-4.4-9C8.6,60.7,6,62,5.5,62.3c-0.4,0.3-3.2,1.5-4.3,4.2
		c-1.1,2.7-0.7,3.1-0.6,4.9c0.1,1.8,1.3,3.4,1.6,3.7c0.3,0.3,3.1,4.4,3.8,5s2.6,4.7,2.6,5.4c0,0.7,0,32.3,0,32.3s0.2,1.3,4.4,1.3
		C17.3,119.1,17.9,117.8,17.9,117.8z"/>
	<g>
		<path fill="#FFFFFF" d="M79,85.8c0-0.9-0.7-1.6-1.6-1.6H22c-0.9,0-1.6,0.7-1.6,1.6v8.3c0,0.9,0.7,1.6,1.6,1.6h55.3
			c0.9,0,1.6-0.7,1.6-1.6L79,85.8L79,85.8z"/>
	</g>
	<path fill="#FFFFFF" d="M20.4,100.4"/>
	<g>
		<path fill="#FFFFFF" d="M20.4,99.8c0-0.9,0.7-1.6,1.6-1.6h116.2c0.9,0,1.6,0.7,1.6,1.6v12.6c0,0.9-0.7,1.6-1.6,1.6H22
			c-0.9,0-1.6-0.7-1.6-1.6L20.4,99.8z"/>
	</g>
	<g>
		<path fill="#FFFFFF" d="M82.8,81.7c-0.9,0-1.6-0.7-1.6-1.6V42.7c0-0.9,0.7-1.6,1.6-1.6h66.5c0.9,0,1.6,0.7,1.6,1.6v14.9
			c0,0.9-0.7,1.7-1.6,1.7c0,0-2.1,0.1-4.5,1.4c-5.2,2.7-5.1,9.1-5.1,9.1c0,0.9,0,2.4,0,3.2v7.2c0,0.9-0.7,1.6-1.6,1.6L82.8,81.7z"/>
	</g>
	<path fill="#FFFFFF" d="M142.2,117.8V71.9c0,0-0.5-6.8,4.4-9c4.9-2.2,7.5-0.9,7.9-0.6c0.4,0.3,3.2,1.5,4.3,4.2
		c1.1,2.7,0.7,3.1,0.6,4.9c-0.1,1.8-1.3,3.4-1.6,3.7c-0.3,0.3-3.1,4.4-3.8,5c-0.6,0.6-2.6,4.7-2.6,5.4c0,0.7,0,32.3,0,32.3
		s-0.2,1.3-4.4,1.3S142.2,117.8,142.2,117.8z"/>
	<g>
		<path fill="#FFFFFF" d="M81.2,85.8c0-0.9,0.7-1.6,1.6-1.6h55.3c0.9,0,1.6,0.7,1.6,1.6v8.3c0,0.9-0.7,1.6-1.6,1.6H82.8
			c-0.9,0-1.6-0.7-1.6-1.6L81.2,85.8L81.2,85.8z"/>
	</g>
</g>
</svg>
